{
  "accessors": [
    {
      "bufferView": 2,
      "componentType": 5126,
      "count": 35903,
      "max": [
        0.7433515787124634,
        2.14951491355896,
        4.578289031982422
      ],
      "min": [
        -1.3228230476379395,
        -0.6674922704696655,
        0.02149095945060253
      ],
      "type": "VEC3"
    },
    {
      "bufferView": 2,
      "byteOffset": 430836,
      "componentType": 5126,
      "count": 35903,
      "max": [
        0.9999836087226868,
        0.9999726414680481,
        0.9999077320098877
      ],
      "min": [
        -0.9999571442604065,
        -0.9999863505363464,
        -0.9997236132621765
      ],
      "type": "VEC3"
    },
    {
      "bufferView": 1,
      "componentType": 5126,
      "count": 35903,
      "max": [
        0.9979236125946045,
        0.9930887818336487
      ],
      "min": [
        0.009361028671264648,
        0.0013918279437348247
      ],
      "type": "VEC2"
    },
    {
      "bufferView": 0,
      "componentType": 5125,
      "count": 159615,
      "type": "SCALAR"
    },
    {
      "bufferView": 2,
      "byteOffset": 861672,
      "componentType": 5126,
      "count": 889,
      "max": [
        0.18317599594593048,
        -0.009110595099627972,
        3.84956693649292
      ],
      "min": [
        -0.2965312898159027,
        -0.3455066978931427,
        3.6820249557495117
      ],
      "type": "VEC3"
    },
    {
      "bufferView": 2,
      "byteOffset": 872340,
      "componentType": 5126,
      "count": 889,
      "max": [
        0.979526937007904,
        0.9979010224342346,
        0.9922696352005005
      ],
      "min": [
        -0.9885527491569519,
        -0.9984588027000427,
        -0.9504807591438293
      ],
      "type": "VEC3"
    },
    {
      "bufferView": 1,
      "byteOffset": 287224,
      "componentType": 5126,
      "count": 889,
      "max": [
        0.969592273235321,
        0.840732216835022
      ],
      "min": [
        0.8072748184204102,
        0.46685218811035156
      ],
      "type": "VEC2"
    },
    {
      "bufferView": 0,
      "byteOffset": 638460,
      "componentType": 5125,
      "count": 2292,
      "type": "SCALAR"
    }
  ],
  "asset": {
    "extras": {
      "author": "Gatomoderno (https://sketchfab.com/kevinmachorro04)",
      "license": "CC-BY-4.0 (http://creativecommons.org/licenses/by/4.0/)",
      "source": "https://sketchfab.com/3d-models/shameless-loona-pose-87dd1993e42241f8b63052d0b822c4ca",
      "title": "Shameless loona pose"
    },
    "generator": "Sketchfab-16.65.0",
    "version": "2.0"
  },
  "bufferViews": [
    {
      "buffer": 0,
      "byteLength": 647628,
      "name": "floatBufferViews",
      "target": 34963
    },
    {
      "buffer": 0,
      "byteLength": 294336,
      "byteOffset": 647628,
      "byteStride": 8,
      "name": "floatBufferViews",
      "target": 34962
    },
    {
      "buffer": 0,
      "byteLength": 883008,
      "byteOffset": 941964,
      "byteStride": 12,
      "name": "floatBufferViews",
      "target": 34962
    }
  ],
  "buffers": [
    {
      "byteLength": 1824972,
      "uri": "scene.bin"
    }
  ],
  "images": [
    {
      "uri": "textures/Material_baseColor.png"
    }
  ],
  "materials": [
    {
      "doubleSided": true,
      "name": "Material",
      "pbrMetallicRoughness": {
        "baseColorTexture": {
          "index": 0
        },
        "metallicFactor": 0.0,
        "roughnessFactor": 0.44739242320554573
      }
    },
    {
      "doubleSided": true,
      "name": "Material_1",
      "pbrMetallicRoughness": {
        "baseColorTexture": {
          "index": 0
        },
        "metallicFactor": 0.0,
        "roughnessFactor": 0.29345958116648413
      }
    }
  ],
  "meshes": [
    {
      "name": "Object_0",
      "primitives": [
        {
          "attributes": {
            "NORMAL": 1,
            "POSITION": 0,
            "TEXCOORD_0": 2
          },
          "indices": 3,
          "material": 0,
          "mode": 4
        }
      ]
    },
    {
      "name": "Object_1",
      "primitives": [
        {
          "attributes": {
            "NORMAL": 5,
            "POSITION": 4,
            "TEXCOORD_0": 6
          },
          "indices": 7,
          "material": 1,
          "mode": 4
        }
      ]
    }
  ],
  "nodes": [
    {
      "children": [
        1
      ],
      "matrix": [
        1.0,
        0.0,
        0.0,
        0.0,
        0.0,
        2.220446049250313e-16,
        -1.0,
        0.0,
        0.0,
        1.0,
        2.220446049250313e-16,
        0.0,
        0.0,
        0.0,
        0.0,
        1.0
      ],
      "name": "Sketchfab_model"
    },
    {
      "children": [
        2,
        3
      ],
      "name": "Nuevo Proyecto 13.obj.cleaner.materialmerger.gles"
    },
    {
      "mesh": 0,
      "name": "Object_2"
    },
    {
      "mesh": 1,
      "name": "Object_3"
    }
  ],
  "samplers": [
    {
      "magFilter": 9729,
      "minFilter": 9987,
      "wrapS": 10497,
      "wrapT": 10497
    }
  ],
  "scene": 0,
  "scenes": [
    {
      "name": "Sketchfab_Scene",
      "nodes": [
        0
      ]
    }
  ],
  "textures": [
    {
      "sampler": 0,
      "source": 0
    }
  ]
}
